<svg xmlns="http://www.w3.org/2000/svg" viewBox="0 0 2155.16 35.79"><defs><style>.cls-1{fill:#fff;}</style></defs><g id="Layer_2" data-name="Layer 2"><g id="Layer_1-2" data-name="Layer 1"><circle class="cls-1" cx="17.89" cy="17.89" r="17.89"/><circle class="cls-1" cx="86.26" cy="17.89" r="17.89"/><circle class="cls-1" cx="154.63" cy="17.89" r="17.89"/><circle class="cls-1" cx="222.99" cy="17.89" r="17.89"/><circle class="cls-1" cx="291.36" cy="17.89" r="17.89"/><circle class="cls-1" cx="359.73" cy="17.89" r="17.89"/><circle class="cls-1" cx="428.1" cy="17.89" r="17.89"/><circle class="cls-1" cx="496.46" cy="17.89" r="17.89"/><circle class="cls-1" cx="564.83" cy="17.89" r="17.89"/><circle class="cls-1" cx="633.2" cy="17.89" r="17.89"/><circle class="cls-1" cx="701.56" cy="17.89" r="17.89"/><circle class="cls-1" cx="769.93" cy="17.89" r="17.89"/><circle class="cls-1" cx="1385.23" cy="17.89" r="17.89"/><circle class="cls-1" cx="1453.6" cy="17.89" r="17.89"/><circle class="cls-1" cx="1521.96" cy="17.89" r="17.89"/><circle class="cls-1" cx="1590.33" cy="17.89" r="17.89"/><circle class="cls-1" cx="1658.7" cy="17.89" r="17.89"/><circle class="cls-1" cx="1727.07" cy="17.89" r="17.89"/><circle class="cls-1" cx="1795.43" cy="17.89" r="17.89"/><circle class="cls-1" cx="1863.8" cy="17.89" r="17.89"/><circle class="cls-1" cx="1932.17" cy="17.89" r="17.89"/><circle class="cls-1" cx="2000.53" cy="17.89" r="17.89"/><circle class="cls-1" cx="2068.9" cy="17.89" r="17.89"/><circle class="cls-1" cx="2137.27" cy="17.89" r="17.89"/><circle class="cls-1" cx="838.3" cy="17.89" r="17.89"/><circle class="cls-1" cx="906.66" cy="17.89" r="17.89"/><circle class="cls-1" cx="975.03" cy="17.89" r="17.89"/><circle class="cls-1" cx="1043.4" cy="17.89" r="17.89"/><circle class="cls-1" cx="1111.76" cy="17.89" r="17.89"/><circle class="cls-1" cx="1180.13" cy="17.89" r="17.89"/><circle class="cls-1" cx="1248.5" cy="17.89" r="17.89"/><circle class="cls-1" cx="1316.86" cy="17.89" r="17.89"/></g></g></svg>