<svg xmlns="http://www.w3.org/2000/svg" viewBox="0 0 1022.09 267.68"><defs><style>.cls-1{fill:#fff;}</style></defs><g id="Layer_2" data-name="Layer 2"><g id="Layer_1-2" data-name="Layer 1"><path class="cls-1" d="M752.13,153.91c-48.49-3.94-96,1.17-143.66,4-70.66,4.13-141.25,6.07-212,1.46-29-1.88-58.3-1-87.29,1.08-59.88,4.22-119.74,4.92-179.7,3.23-28.62-.81-57.27-.89-85.9-1-13.84,0-25.95-3.71-35.88-13.82-7.3-7.42-9.42-14-6.25-21.66,3.3-8,10-12.46,20-11.89,8.75.5,17.41,2.85,26.16,3.26,12.69.6,25.43.24,38.15.19,38.62-.14,77.24,0,115.85-.57,47.47-.68,94.93-2.31,142.41-2.86,77.09-.9,154.19-1.08,231.28-1.87,72.92-.74,145.83-2.15,218.74-2.69,30-.22,60.09,1,90.13,1.72,4.4.1,8.88.2,10-5.06,1.17-5.74-3.3-7.39-7.74-8.75a294.31,294.31,0,0,1-98-51.85c-7.65-6.11-13.92-14.33-19.57-22.47-3.89-5.61-5.59-13-.48-19.24C773.11-.73,780-.73,786.62,1a72.75,72.75,0,0,1,15,5.76c53.07,27.86,106.49,54.94,164,72.85,11.19,3.48,22.57,6.37,33.87,9.54,22.58,6.34,29.58,24,15.12,42.4-7.2,9.13-17.41,16.38-27.36,22.76C927.41,192.65,866,228,800.35,255.53a202.33,202.33,0,0,1-39.2,11.52c-11.21,2.2-13.64-1.22-12.44-12.41a29.44,29.44,0,0,1,13.9-22.29,133.21,133.21,0,0,1,24.66-12.72c26.71-10.07,49.14-27.07,72.05-43.32A181.35,181.35,0,0,0,874.8,164c1.63-1.44,2.18-4.09,3.23-6.19-1.86-.86-3.69-2.35-5.59-2.47-10.48-.66-21-1.3-31.47-1.36C811.13,153.79,781.29,153.91,752.13,153.91Z"/></g></g></svg>