<svg xmlns="http://www.w3.org/2000/svg" viewBox="0 0 836.2 826.65"><defs><style>.cls-1{fill:#fff;}</style></defs><g id="Layer_2" data-name="Layer 2"><g id="Layer_1-2" data-name="Layer 1"><path class="cls-1" d="M128.07,589q-20.76,10.35-41.52,20.71a25.42,25.42,0,0,0-3.22,1.45c-10.14,7-9.79,9.94-.37,17.64,14.46,11.81,28.36,24.31,42.43,36.58,12.18,10.62,24.54,21.06,36.35,32.08,11.5,10.72,22.86,21.66,33.47,33.25,11.41,12.47,22.21,25.55,32.63,38.86a295.45,295.45,0,0,1,18.58,27.53c7.06,11.47-1.49,29.19-14.66,29.6-3.47.1-7.87-4.19-10.5-7.53-10.42-13.19-19.71-27.29-30.53-40.12A516.85,516.85,0,0,0,153,738.53c-15.76-15.06-32.48-29.15-49.12-43.25C90.64,684,76.77,673.5,63.37,662.4c-3-2.45-5.14-5.87-7.47-9-5.17-6.94-12-10.18-20.63-9.89-5.38.18-10.79-.24-16.15.11-5.19.34-8.26-2.06-10.2-6.46C6.45,631.56,3.83,626,1.66,620.26c-4.76-12.58,1-22.62,13.84-25.25a15.22,15.22,0,0,0,6.17-3.44c4.32-3.56,8.77-5.16,14.67-5.7,6.07-.55,11.9-4.54,17.66-7.36q36.41-17.85,72.68-35.91c1.27-.62,3.29-1.22,3.54-2.19,3.41-13.36,16.19-15.75,25.72-21.3,14.77-8.6,30.31-15.93,45.82-23.15,9.31-4.33,19.47-6.85,28.76-11.22,12.32-5.8,25.59-10,35.31-20.62,6.46-7.08,14.81-5.2,19.27,3.89a96.77,96.77,0,0,1,6.62,17.21c3.37,12.45-2.63,28.32-12.51,33.38-9.57,4.9-19.38,9.33-29.1,13.94q-14,6.63-28,13.2c-19.25,9.07-38.48,18.19-57.77,27.19-6.68,3.11-13.5,5.92-20.25,8.88-.09.82-.17,1.64-.25,2.45,5,1.67,9.92,4,15.07,4.86q21.28,3.55,42.75,6c12.34,1.4,24.77,1.9,37.14,3.06,19,1.77,37.93,4,56.92,5.58,9,.76,18.05.29,27,.87,15.58,1,31.12,2.42,46.68,3.61,2.44.18,4.9,0,7.34.1q44.44,1,88.89,2c13,.3,26,.64,39,.93,21.81.5,43.68,2.12,65.43,1.19,33.82-1.45,68.09,0,101.11-8.89,17.75-4.79,35.51-10.91,51.86-19.21,29-14.71,49.15-38.82,62.72-68.1a176.92,176.92,0,0,0,16.46-61.61c.84-11.33,3-22.68,2.64-34-.55-20.05-1.64-40.09-6.56-59.78-4.23-16.9-6.3-34.4-11.29-51-4.46-14.86-10.8-29.31-17.79-43.19-7.68-15.24-17.56-29.36-25.58-44.44-9.47-17.81-22.66-32.9-34.6-48.86-13.46-18-27.74-35.42-42.49-52.39-17.49-20.13-35.94-39.43-53.81-59.24a289.5,289.5,0,0,1-19.48-23.25c-6.57-9-1.8-33.39,11.7-37C610,.18,614.87-2,619.13,4c5.73,8.15,12.23,15.79,18.57,23.5,14.11,17.14,28.56,34,42.43,51.32,15.69,19.61,31.27,39.33,46.22,59.5,16,21.64,32.17,43.29,46.55,66a543.22,543.22,0,0,1,33.2,61.42c7.51,16.16,12.84,33.44,17.88,50.59,3.53,12,5.57,24.6,7.16,37.07,3,23.68,6.63,47.45,4.33,71.41-1.88,19.54-3.49,39.29-7.69,58.4a212.3,212.3,0,0,1-34.42,77.31C783,575.16,771.7,589,756.51,599.2c-8.62,5.76-16.37,12.9-25.26,18.18-6,3.55-13.23,5.07-20,7.26-15.54,5.05-30.92,10.8-46.76,14.68-14.24,3.49-28.94,5.44-43.55,7-12.59,1.34-25.35,1.08-38,1.69-12,.57-24.08,1.54-36.13,2-6.43.23-12.89-.33-19.34-.43-6-.1-12,0-18.06-.12-15.94-.43-31.88-1.06-47.83-1.42-9.4-.21-18.81.23-28.2-.12-21-.79-42-2.08-63.05-2.81-22.53-.78-45.1-.7-67.62-1.82-23.45-1.16-46.86-3.14-70.27-5.08-16.63-1.37-33.32-2.66-49.8-5.15-10.08-1.53-19.85-5.2-29.71-8a153.15,153.15,0,0,1-15-4.94c-8.93-3.6-10.79-8-8.63-17.42,1-4.16,1-8.53,1.42-12.81Z"/></g></g></svg>