<svg xmlns="http://www.w3.org/2000/svg" viewBox="0 0 1055.51 848.32"><g id="Layer_2" data-name="Layer 2"><g id="Layer_1-2" data-name="Layer 1"><path d="M959.33,44.68,801,62.57c-9.16,1-18.31,2.83-27.48,2.87-9.45,0-24.88,7.67-25-9.44-.11-14.52,5.91-29.19,25.07-31.35,28.22-3.17,56.32-7.49,84.57-10.41,48-5,96-9.39,144.08-13.68,9.89-.88,20-.57,29.89-.11,24.14,1.13,28.48,6.21,18,29-8.19,17.7-19.76,34.54-32.75,49.17C989,110.51,959.25,141.23,929,171.35c-5.62,5.59-16.29,6.09-24.64,8.94,1.48-9.16,0-20.65,5-27,14-17.87,30.68-33.61,46.27-50.22,3.2-3.41,6.28-6.92,7-14.57-28,9.85-56.31,19-84,29.67-131.69,50.6-260.08,108.21-379.81,183.51C317,416,162.77,557.28,63.48,751.49,51.86,774.22,42.25,798,31.7,821.26c-2.35,5.18-3.46,11.76-7.35,15.21-5.77,5.11-13.51,8-20.41,11.85-1.25-7.48-5.66-16.26-3.22-22.23,12.61-30.85,25.59-61.71,40.94-91.26,94.51-181.89,234.34-322.3,402.67-436C568.77,214.75,702.86,149.21,842.6,94.9c34.93-13.58,70.09-26.56,105.09-40,4.4-1.68,8.46-4.28,12.67-6.46Z"/></g></g></svg>