<svg xmlns="http://www.w3.org/2000/svg" viewBox="0 0 933.85 324.9"><defs><style>.cls-1{fill:#fff;}</style></defs><g id="Layer_2" data-name="Layer 2"><g id="Layer_1-2" data-name="Layer 1"><path class="cls-1" d="M423.43,324.41q-176.61,0-353.21,0c-8.2,0-14-4.32-18.1-11.11-7.79-12.83-16.33-25.28-23-38.65-4.53-9-6.85-19.25-9.46-29.12-3.79-14.26-5.9-29.05-10.62-43C2.08,182.05-1.28,161.36.44,139.9A81.38,81.38,0,0,1,4.1,122.41c.53-1.71,3.7-3.65,5.66-3.65,4.23,0,4.72-2.12,5.31-5.46,1.16-6.64,2.74-13.21,4.38-19.75,2.27-9.11,9.65-12.08,17.67-13.75,3.54-.73,7.41.1,10.93-.66a15.29,15.29,0,0,0,7.22-4c2.85-2.9,5.62-5.19,9.92-4.44,5.12.89,7.09-1.35,7.58-6.41,1.52-15.36,8.39-27.69,21.72-36,8.07-5,15.85-10.76,24.46-14.57,8.1-3.57,17-5.43,25.77-7.31C159.83,3.14,175-.14,190.58,0c25.43.23,50.87.21,76.31.22Q348,.25,429,.21q65.33,0,130.65,0Q662.14.23,764.6.17q65.82,0,131.63.25c10.65,0,12.48,2.55,15.32,13.75,5.65,22.28,5,44.88,4.25,67.46-.33,9.75,3.14,18,6.59,26.58,1.29,3.22.77,7.39.31,11-.44,3.42-1.35,6.18,2.48,8.61,1.59,1,1.67,4.4,2.41,6.71,1,3.07,1.43,6.45,3,9.15,4.65,7.83,3.66,15.94.91,23.65-3.25,9.11-3.08,18.34-2.75,27.61a34.59,34.59,0,0,1-9.84,26,200.39,200.39,0,0,0-13.12,16.17,12.46,12.46,0,0,0-1.91,5.55c-1.11,7.29-3.91,14-4.16,21.8-.45,14.12-10,24.38-21.07,32.62-6.36,4.73-12.94,9.16-19.36,13.81-7.7,5.56-16.17,9.06-25.74,9.33-13.47.39-27.24-1.11-40.35,1.2-33,5.82-66.06,2.44-99,2.69-90.25.68-180.51.23-270.76.23Z"/></g></g></svg>