<svg xmlns="http://www.w3.org/2000/svg" viewBox="0 0 1457.14 224.07"><defs><style>.cls-1{fill:#fff;}</style></defs><g id="Layer_2" data-name="Layer 2"><g id="Layer_1-2" data-name="Layer 1"><path class="cls-1" d="M110.71,220.82l-10-1c-.1-.35-.19-.71-.28-1.06l-2.74,2.1c-3,.14-4.42-4.66-9-.7-2.51-1-5.4-3.05-7.94.15-2.62-1.43-5.13-3.08-7.61-.13-2.62-.86-5.14-3.44-7.57,0-2.8-.32-5.55-4.32-8.06.32-6-4.32-14.89-1.6-21.7-3.51H47.44l.37-.63c-3.06-.61-6.05-1.58-9.2-1.75-8.07-.42-11.54-3.69-15.47-6.75-1.3-1-2.82-2-3.5-3.17-.46-.78.37-1.78.66-2.84L16,197l-.93.94c0-1.09.56-2.29-.11-3.24C12.88,191.74,9.8,189,8.16,186c-1.4-2.57-1-5.41-2-8.07-1.2-3.25-3.89-6.41-4.31-9.67-.72-5.6-.25-11.26-.14-16.89.08-4.23.5-8.46.49-12.68,0-.75-1.35-1.51-2.19-2.37l3.3-1.56-3.22-2c4.25-1.62,4.55-3.63,3.63-6.44-1-3,1.68-6.27.79-9.26-1.57-5.27,4.42-9.75,3.93-14.88-.18-2,1.87-4,2.75-5.94a9.94,9.94,0,0,0,.39-2.42c.16-.86.39-1.72.58-2.58l2.15-.42c-1-.28-2.56-.46-2.77-.86-1.12-2.08,7.23-3,2.39-5.66l9.53-3.54-3.39-.57c.51-3.45-1.24-7.54,9-7.79l-4.81-3-5.58.82-.63-1.15,9.74-1.7-6.12-2.09,15.75-3.39-.29-.74H24l-.32-.58,8-2.42-4-.81c2.38-10,12.83-17.67,24.78-24.66,8.72-5.1,14.92-10.88,19.36-17.17C76.72,8.36,84.59,4,99.3,4.2c5.85.07,11.71.09,17.54-.08a42.49,42.49,0,0,0,6.57-1.23L126,4c1.78-4.69,8.38-3,13.26-3.21C145,.54,150.7.67,156.43.65c15-.08,30.08-.22,45.12-.22,21.18,0,42.37.16,63.56.18,17,0,34.09-.07,51.13-.08,14.16,0,28.31.07,42.47,0,17,0,34-.19,51.07-.19,22.3,0,44.6.18,66.91.17,21.16,0,42.33-.23,63.5-.23,27.94,0,55.89.16,83.84.16,21.24,0,42.48-.21,63.72-.2,30.32,0,60.64.17,91,.17,29.56,0,59.12-.13,88.68-.15q64.8,0,129.6,0c21.48,0,43-.15,64.43-.15,27.43,0,54.86.15,82.29.13,21.71,0,43.41-.23,65.12-.28,21.14,0,42.28,0,63.41,0,22.27,0,44.55,0,66.81.1a92.44,92.44,0,0,1,15.11,1.23c14.58,2.58,30.58,3.39,42.41,9.57,2.62,1.37,6.72,2.48,1.36,5.47l10.51,2.36-6.15.78,12.82,6.81-5.9.9,1.16.95,10.86,1-9.07,1.09-.12,1.28,19.87,1.94-.35.83h-13.38c-.27,3.58,3.65,4,8.47,3.89,4.29-.08,8.6,0,12.9,0l0,1.08H1424c0,1.3-.06,2.21,0,3.12.19,2.37-1.55,3-5.86,2.42-2.9-.36-6.15.09-9.25.18l-.39.93c3.26.33,6.49.8,9.78.95,3.66.17,7.37,0,11.36,0-.26,1.74-7.65,1.47-2.41,4-4.6.62-3.79-4.67-9.07-1.95-.45.23.38,1.19.69,2l-5,.23c1.46,1.42,2.68,2.58,3.89,3.75l1.45-.36c-.3-.68-.59-1.36-.86-2a4.11,4.11,0,0,1,.73-.25c2.66,1.13,5.06,2.95,8,3.27,4.84.53,4.8,2.51,6.77,4.09s5.63,2.59,9,3.37c2.34.55,5.33.28,8,1.07H1436c2.61,6.32,10.87,8.17,21,8.81-3.36.68-6.63.94-8.83,1.91s-3.69,2.39-.46,4a25.15,25.15,0,0,1,6,4.69c.76.73.54,1.75.77,2.64l-1.68.13,4.29,3.54-8.74.9c5.74,3.62.1,8.89,8.4,11.63l-19.31,3.93,12,2.13-12.5,1c2.41,2.72,6.36,2.32,9.85,2.43a95.38,95.38,0,0,1,10,.64L1439.51,114l-2.1,4.09,4.83,1v.69l-14.27,1-.12.75,5.3,1.5-4.9,1.12.07.68,11,1-12.45,1.61c.19.38.37.77.55,1.15a29.52,29.52,0,0,1,4.94-.15c2.91.4,6.8-.33,8.2,2.21.33.6,3.8.68,6.17,1.06l-12,2.84.36,1.17,15.73.48-16.22,1.57c0,.35,0,.71,0,1.06l6.24.83.35.9-16,1.91,2.29,5.09,1-.14c.58-1.21,1.15-2.43,1.73-3.64l1.7,0,4.26,4.52-3.32.66,8.19,3.25c-1.92,1.22-4.52,2.75-6.83,4.41a1.09,1.09,0,0,0,0,1.7c2.87,1.48,5.69,2.83,5.19,5.34-.27,1.3,1.36,3.16.23,3.87a13.7,13.7,0,0,1-7.35,1.3c-5.83-1-8.13.1-8.24,3.11l-8.12.3c-.14.41-.28.83-.41,1.24l8.76,1.19-6.6,1.28c3.61.71,6,1.12,8.36,1.68,1.79.43,3.42,1,4.54,1.39l-19.88,1.12c-.07.22-.15.44-.22.65l17.9,1.42c-1,2-2,3.9-3.16,6.22l10.69.29.86.69a15.94,15.94,0,0,1-3.91,1.17c-6.79.27-13.6.38-20.4.54,0,.29-.07.58-.11.87l28.61,1.67c-11.1,1.44-22.61-.75-31.89,4l18.56.51,2.93,5.73-14.54,1.68,6.47,2.38a37.49,37.49,0,0,1-6,1.34c-9.27.49-18.56,1.14-27.85,1.15-11.49,0-22.28.86-32.69,3.8-4.56,1.28-10.34,1.44-15.64,1.75-8.68.52-17.41.84-26.13,1.06-7.11.18-14.24.11-21.37.12-3.31,0-6.83-.45-9.88,0-2,.31-3.34,1.91-5,2.93l.2-.07c-2.76-.63-2.76-.63-.62-2.43l-1-.69-8.34,3.42-3.86-2.37-3.07,2.67-4.7-2.71-3.15,2.76-4.8-2.81-2.38,2.64-1.76.59c-.82-1.22-1.63-2.45-2.71-4.07l-3.82,3.73-4.56-2.81c-1.15,1-2,1.83-3.11,2.76l-5.59-3.3c-.16,1.62-.25,2.5-.34,3.38l.19-.1-7.26-2.44-2.27,2.72-4.71-2.95-3.5,2.7-4.61-2.73-3.4,3.31-3.09-3.11-5.91,2.48.18.09c-.91-.92-1.83-1.85-3-3l-3.36,3-4.11-2.34-5.23,2.33.2.09-3.25-3.2-3.44,4.1-3.94-4.37-3.45,3.62-4.69-2.87-3,2.73-4.61-2.67-3.14,2.46-5.33-2.7c-.82,1.19-1.36,2-2.53,3.71l-4-3.87-3.83,3.11-4.71-3-2.22,2.73-1.74.61-3-4-3.63,3.76-4.53-2.94-3.78,3.12-3.5-3.75-3.9,3.49-4.61-2.88c-1.14,1.1-1.94,1.89-2.74,2.67l-1.85.68q-1.12-1.91-2.24-3.81l-1.51.84L1083,221l-4.45-3.13-4.29,3.35-3.22-4.11-4,4.31-3.49-3.89-2,.79c-.14.79-.29,1.57-.44,2.36l.17-.09-7-2.39-2.34,2.65-5.11-3-1.92,2.8-2,.78-3.12-4.51-3.83,4.58c-1.39-1.7-2.34-2.85-3.28-4l-2,.83-.54,2.4.18-.09-7.12-2.39-2.61,3.08-3.69-3.8-1.58.73-1.62,2.71-5.84-3-2.67,3.48-3.46-3.76-5.28,3.4-2.89-3.8-1.62.92c-.51.8-1,1.59-1,1.65-3.07,1.29-5.83-4.62-7.23.83l.17-.09L977,218.41l-3.25,2.85L970,217.31l-3.15,3.45-4.65-2.39L959,220.64l-5.36-2.57-2.57,2.87-4.88-3-2.77,2.92L938.56,218l-2.73,2.8L930.42,218,928,220.81l-5.87-2.88c-.21,1.34-.32,2.06-.44,2.79l.18-.09-7.39-2.2-1.85,2.45-6.15-3.16c-.12,1.41-.19,2.21-.26,3l.18-.1-7.1-2.2L897,220.81l-6.2-3.2v3.11l.16-.09-7.13-2.22-3.15,3.32-3.47-4-1.68.66c-.07.77-.15,1.55-.22,2.32l.17-.09-7.19-2.22-2,2.5-6.51-3.18v3l.17-.09-6.83-1.9L850,220.81l-4.58-2.69-2.67,2.71-5-2.36-3.52,2.64-3.53-3.18-3.8,2.83L821.3,218l-1.44,2.94-5.8-2.68-2.29,2.38-1.75.63-2.33-3.76-1.8.87-1.58,2.37-1.58.54-3.17-3.77-4.23,3.7-3.13-3.43-4.66,3.33-3.69-3.23-3.37,2.92-4.75-2.42c-1.05.9-1.92,1.62-2.78,2.35l-1.92.73-2.22-3.75-2,.83v2.18l.19-.09-7.33-2.08c-.69.69-1.45,1.46-2.46,2.46l-4.73-2.69-4.16,3.23c-1.16-1.51-2-2.6-3.18-4.13L741,221.85l-3.64-4.11-3.61,3.32-4.23-2.54-4.44,3-3.25-3.83-3.55,3.17c-2-1-3.58-1.85-5.32-2.74l-1.78,2.72-1.86.59-2.58-3.34-4.33,2.85-4.24-2.65L694.81,221l-4.38-2.58-3.18,2.44-4-2-5.81,1.82.19.09L674.83,218,671,221.3,668,218l-1,1.09-5.13,1.58.19.09L659.25,218l-2.83,3-5.5-2.81-2.53,2.9-4.48-2.55-4,2.58-3.08-3.26-4.57,3.56-3.47-3.15-3.71,2.54-4.62-2.35-3.21,2.63-4.34-2.68-4,3.12-3-3.44-4.75,3.11-3-3.18-4.15,2.7-5.09-2.49c-.38,1.15-.59,1.82-.81,2.5l.18-.1-6.81-1.77-2.81,2-4.79-2.37L570.56,221l-4.12-2.56-3.34,2.51-5.5-2.83c-.28,1.25-.43,2-.58,2.65l.16-.1-7.07-1.75-3,2.58-3.34-3.78-4,3.37-4.26-2.57c-1.28.91-2.35,1.67-4.28,3l-3.52-4.17-3.4,3.77-4.36-2.55-4,2.61-3.43-3.31-3.6,3-5.52-2.75-1.68,2.67-1.79.62c-.81-1.11-1.63-2.22-2.67-3.61l-4.72,3.8c-1.11-1.47-1.93-2.55-3-3.94l-4.21,3.54-4.17-2.81-4.19,3.34-3.36-4.26-3.69,4.13-4-3.59-4.3,3.63-3.52-3.93-3.44,3.47L450,218.53l-3.42,2.27-4.62-2.28-3.15,2.54-4.46-2.62-3.92,3.37L427,218l-4.15,3.79-3.35-3.91-4.27,3.4L411.57,218l-3.78,3.17-4.38-2.73c-1.19.9-2.13,1.61-3.22,2.45l-4.83-2.41L392.58,221l-5.12-2.22-.87,1.93.17-.13L379.25,219c-.43.43-1.24,1.21-2.26,2.2l-5-2.83-2.85,2.91-4.63-2.9-3.29,2.73-4.48-2.73-3.53,3.41-3.46-4-4.48,3.8-3.33-4-4,3.7-4.19-2.81-4.06,3.16-3-3.62-1.64.59-2.16,2.64-5-2.89-3.38,3.34L310.68,218l-3.43,3.22-4.67-2.65-3.38,2.63-4.72-2.75-2.93,2.89-4.76-2.86L283.26,222c-1.38-1.59-2.31-2.66-3.76-4.31L275.65,222l-3.53-4.4-4.42,4.12-3.43-3.4-1.7.51v1.88l.22-.07-7.6-1.61-2.39,2.24-4.68-2.66-3.39,2.67-4.45-2.77-3,2.8-5-2.84-2.5,2.88-5.27-2.72-2.61,2.76-1.46,0-3.35-3L214,221.43l-4.68-2.94-3.77,3.56-3.42-4-3.76,3.25-5.27-3.18c-.36,1.54-.57,2.41-.77,3.28l.19-.12-6.76-2.36-2.9,2.47-4.65-2.91-3.58,3.63-3.68-4.33-3.42,3.68-4.69-2.93-2.87,2.66-2,.71-2.5-4.32L152,221.49l-4.84-3-3.61,3.76L140,218l-3.74,3.25-4.76-2.73-2.9,2.91-4.89-2.89-2.83,2.86c-1.89-1.12-3.24-1.94-3.89-2.33L111.27,221Z"/><path class="cls-1" d="M262.57,220.69a44.64,44.64,0,0,0,16.53.6c1.35-.17,3.18.78,4.79,1.22l-.3,1.16c-1.85,0-3.72,0-5.56,0-.66,0-1.43-.59-1.89-.5a46.91,46.91,0,0,1-14.83.17c-3.45-.43-7.47.72-11.24.76-1.8,0-3.63-.9-5.44-1.4,1.76-.42,3.52-1.2,5.29-1.21,3.78,0,7.57.44,11.36.55.46,0,1-.91,1.51-1.39Z"/><path class="cls-1" d="M262.79,220.62c-.5.48-1.05,1.4-1.51,1.39-3.79-.11-7.58-.56-11.36-.55-1.77,0-3.53.79-5.29,1.21l.29-.08c-1.74-.34-3.45-.77-5.25-1a29.19,29.19,0,0,0-5.12-.15,30.14,30.14,0,0,0-4.11.8l-.52,0-.51,0-7.48-.89,2.61-2.76,5.27,2.72,2.5-2.88,5,2.84,3-2.8,4.45,2.77,3.39-2.67,4.68,2.66,2.39-2.24Z"/><path class="cls-1" d="M767,220.63c-.5.38-1.05,1.12-1.49,1.1-3.76-.15-7.5-.56-11.26-.64-3.48-.08-7,.23-10.48.23-4.28,0-8.56-.18-12.84-.26-2.7-.05-5.41-.18-8.08-.07-3.57.14-7.1.63-10.65.68-3.92,0-7.84-.29-11.77-.39-3.55-.09-7.12-.18-10.67-.09-3.9.09-7.78.39-11.67.52-.19,0-.45-.71-.68-1.09l5.81-1.82,4,2,3.18-2.44,4.38,2.58,3.39-2.71,4.24,2.65,4.33-2.85,2.58,3.34,1.86-.59,1.78-2.72c1.74.89,3.36,1.72,5.32,2.74l3.55-3.17,3.25,3.83,4.44-3,4.23,2.54,3.61-3.32,3.64,4.11,4.09-4.43c1.17,1.53,2,2.62,3.18,4.13l4.16-3.23,4.73,2.69c1-1,1.77-1.77,2.46-2.46Z"/><path class="cls-1" d="M192.47,221.28c-.46.27-.91.77-1.38.77-5.2.07-10.41.18-15.59,0-6.37-.15-12.71-.66-19.07-.73-3.6,0-7.23.49-10.85.75a18.18,18.18,0,0,1-2.33.11c-6.33-.36-12.65-.94-19-1-3.68-.07-7.4.67-11.13.91-.53,0-1.23-.75-1.85-1.15l5.74-1.86c.65.39,2,1.21,3.89,2.33l2.83-2.86,4.89,2.89,2.9-2.91,4.76,2.73L140,218l3.52,4.26,3.61-3.76,4.84,3,3.41-3.91,2.5,4.32,2-.71,2.87-2.66,4.69,2.93,3.42-3.68,3.68,4.33,3.58-3.63,4.65,2.91,2.9-2.47Z"/><path class="cls-1" d="M662.08,220.72a60.46,60.46,0,0,1-17,.4c-3.47-.38-7.36.56-11.07.6s-7.48-.29-11.22-.42a93.09,93.09,0,0,0-10.27-.21c-4.7.37-9.32.12-13.86.19a68.37,68.37,0,0,1-10.63-.57c.22-.68.43-1.35.81-2.5l5.09,2.49,4.15-2.7,3,3.18,4.75-3.11,3,3.44,4-3.12,4.34,2.68,3.21-2.63,4.62,2.35,3.71-2.54,3.47,3.15,4.57-3.56,3.08,3.26,4-2.58,4.48,2.55,2.53-2.9,5.5,2.81,2.83-3Z"/><path class="cls-1" d="M983.89,220.63c-.24.36-.55,1-.71,1-4-.22-7.9-.72-11.85-.76-3.68,0-7.37.54-11.06.59s-7.67-.22-11.52-.33c-2.78-.08-5.57-.22-8.35-.18-3.81.07-7.61.4-11.41.39-2.42,0-4.84-.42-7.27-.65.12-.73.23-1.45.44-2.79l5.87,2.88,2.39-2.78,5.41,2.78,2.73-2.8,4.87,2.88L946.2,218l4.88,3,2.57-2.87,5.36,2.57,3.15-2.27,4.65,2.39,3.15-3.45,3.82,3.95,3.25-2.85Z"/><path class="cls-1" d="M1030.38,220.63c-.2.27-.44.79-.62.78-3.93-.15-7.85-.5-11.78-.51-3.65,0-7.29.45-10.94.47-4,0-8-.2-12.06-.32l-11.26-.33c1.4-5.45,4.16.46,7.23-.83,0-.06.54-.85,1-1.65l1.62-.92,2.89,3.8,5.28-3.4,3.46,3.76,2.67-3.48,5.84,3,1.62-2.71,1.58-.73,3.69,3.8,2.61-3.08Z"/><path class="cls-1" d="M1224.68,220.64c-3,.27-5.93.76-8.9.76-3.86,0-7.72-.56-11.59-.57-3.69,0-7.38.47-11.09.57a12.14,12.14,0,0,1-3.17-.78l5.91-2.48,3.09,3.11,3.4-3.31,4.61,2.73,3.5-2.7,4.71,2.95,2.27-2.72Z"/><path class="cls-1" d="M215,222.67c-5.55-1.86-11.11-1.52-16.66,0l-6.08-1.27c.2-.87.41-1.74.77-3.28l5.27,3.18,3.76-3.25,3.42,4,3.77-3.56,4.68,2.94,3.17-3.12,3.35,3Z"/><path class="cls-1" d="M906.43,220.62c-.46.37-1,1.06-1.36,1-4.78-.25-9.54-.61-14.31-.94v-3.11l6.2,3.2,2.37-2.39Z"/><path class="cls-1" d="M921.9,220.63c-.69.35-1.44,1-2.07,1-4.54-.22-9.05-.6-13.58-.92.07-.79.14-1.59.26-3l6.15,3.16,1.85-2.45Z"/><path class="cls-1" d="M890.92,220.63c-.46.35-1,1-1.38,1-4.77-.24-9.52-.59-14.27-.92.07-.77.15-1.55.22-2.32l1.68-.66,3.47,4,3.15-3.32Z"/><path class="cls-1" d="M875.44,220.63c-.64.41-1.35,1.19-1.89,1.16-4.61-.27-9.19-.69-13.77-1.07v-3l6.51,3.18,2-2.5Z"/><path class="cls-1" d="M677.58,220.71c-4.59.37-9.16.79-13.77,1-.56,0-1.27-.73-1.92-1.13l5.13-1.58,1-1.09,3,3.34,3.81-3.27Z"/><path class="cls-1" d="M1190.11,220.71c-4.65.26-9.3.55-14,.73-.54,0-1.15-.52-1.73-.81l5.23-2.33,4.11,2.34,3.36-3C1188.28,218.86,1189.2,219.79,1190.11,220.71Z"/></g></g></svg>