<svg xmlns="http://www.w3.org/2000/svg" viewBox="0 0 846.72 293.35"><defs><style>.cls-1{fill:#fff;}</style></defs><g id="Layer_2" data-name="Layer 2"><g id="Layer_1-2" data-name="Layer 1"><path class="cls-1" d="M64.33,289.09l-5.83-1.37-.16-1.39-1.59,2.76c-1.75.18-2.57-6.1-5.22-.92-1.46-1.29-3.14-4-4.61.19-1.53-1.86-3-4-4.43-.17-1.52-1.12-3-4.5-4.39,0-1.63-.42-3.23-5.65-4.69.42-3.46-5.65-8.65-2.09-12.61-4.6h6.77l.21-.82c-1.78-.79-3.52-2.07-5.34-2.28-4.69-.56-6.71-4.84-9-8.85a17.91,17.91,0,0,1-2-4.14c-.26-1,.22-2.34.39-3.72l-2.51-6.25-.54,1.21c0-1.42.32-3-.06-4.23-1.21-3.86-3-7.48-3.95-11.42-.81-3.37-.6-7.08-1.17-10.56-.69-4.26-2.26-8.39-2.5-12.66C.65,212.91.92,205.51,1,198.13c.05-5.53.29-11.07.28-16.6,0-1-.78-2-1.27-3.1l1.92-2L.05,173.8c2.47-2.13,2.64-4.76,2.11-8.43-.57-3.89,1-8.21.45-12.13-.91-6.9,2.57-12.77,2.29-19.47C4.79,131.21,6,128.59,6.5,126a27.48,27.48,0,0,0,.22-3.16c.1-1.13.23-2.25.34-3.38l1.25-.55c-.56-.37-1.49-.6-1.61-1.12-.65-2.72,4.2-4,1.39-7.41l5.54-4.64-2-.74c.29-4.53-.72-9.88,5.23-10.2l-2.79-4L10.85,91.9l-.36-1.5,5.66-2.23-3.56-2.74L21.74,81l-.17-1H13.93l-.19-.76,4.62-3.16L16,75c1.38-13,7.45-23.13,14.39-32.28A72.4,72.4,0,0,0,41.66,20.29c2.92-9.34,7.49-15,16-14.79,3.4.09,6.81.12,10.2-.11,1.21-.08,2.39-1,3.81-1.61l1.5,1.42c1-6.14,4.87-3.95,7.7-4.2,3.32-.29,6.66-.12,10-.15,8.74-.1,17.48-.29,26.22-.28,12.31,0,24.62.2,36.93.23,9.9,0,19.81-.09,29.71-.1,8.23,0,16.45.09,24.68.06,9.89,0,19.78-.25,29.67-.25,13,0,25.92.24,38.88.22,12.3,0,24.6-.29,36.9-.3,16.24,0,32.48.21,48.72.21,12.34,0,24.69-.27,37-.26,17.62,0,35.23.22,52.85.23,17.18,0,34.35-.18,51.53-.2,25.1,0,50.2,0,75.3,0,12.48,0,25-.2,37.45-.19,15.93,0,31.87.19,47.81.16C677.19.37,689.81.1,702.42,0,714.7,0,727,0,739.27,0c12.94,0,25.88,0,38.82.14a25,25,0,0,1,8.78,1.61c8.47,3.38,17.77,4.44,24.64,12.53,1.52,1.79,3.91,3.25.8,7.16l6.1,3.08-3.58,1,7.46,8.92-3.43,1.17.67,1.25,6.31,1.34-5.27,1.42-.07,1.67,11.55,2.55L831.84,45h-7.77c-.16,4.69,2.12,5.2,4.92,5.09,2.5-.09,5,0,7.5,0l0,1.41h-9c0,1.71,0,2.9,0,4.09.11,3.1-.9,3.87-3.41,3.17-1.68-.48-3.57.12-5.37.24l-.23,1.21a49.29,49.29,0,0,0,5.68,1.25,65.59,65.59,0,0,0,6.6,0c-.15,2.27-4.44,1.92-1.4,5.19-2.67.81-2.2-6.13-5.27-2.56-.26.3.23,1.56.41,2.63l-2.89.3L823.84,72l.84-.49-.5-2.6c.24-.19.4-.36.43-.33,1.54,1.49,2.93,3.87,4.65,4.29,2.81.69,2.79,3.29,3.93,5.35s3.28,3.4,5.2,4.41c1.36.72,3.1.37,4.67,1.4h-8.61c1.51,8.28,6.32,10.7,12.19,11.54-1.95.89-3.85,1.23-5.13,2.5a3.55,3.55,0,0,0-.27,5.3,25.86,25.86,0,0,1,3.51,6.14,12.18,12.18,0,0,1,.45,3.46l-1,.16,2.5,4.65-5.08,1.17c3.33,4.74.06,11.65,4.87,15.23l-11.22,5.14,7,2.79L835,143.43c1.4,3.56,3.69,3,5.72,3.18a24.61,24.61,0,0,1,5.79.84l-10,1.85c-.57,2.51-.88,3.85-1.22,5.35l2.8,1.28v.91l-8.3,1.29c0,.33,0,.66-.07,1l3.09,2-2.85,1.47,0,.89,6.41,1.31-7.23,2.11c.1.5.21,1,.31,1.5a7.86,7.86,0,0,1,2.87-.2c1.7.53,4-.42,4.77,2.9.19.78,2.21.89,3.58,1.38l-7,3.72.21,1.54,9.14.63-9.43,2,0,1.39,3.62,1.09.21,1.17-9.32,2.5c.42,2.11.88,4.39,1.33,6.67l.61-.18c.33-1.59.67-3.18,1-4.77l1-.07,2.48,5.92-1.93.86,4.75,4.26c-1.11,1.59-2.62,3.61-4,5.77a2.75,2.75,0,0,0,0,2.23c1.67,1.94,3.31,3.71,3,7-.15,1.71.8,4.14.14,5.07-.86,1.23-3,2.16-4.27,1.7-3.39-1.27-4.72.13-4.79,4.07l-4.72.4-.24,1.62,5.09,1.56-3.83,1.67c2.1.93,3.51,1.47,4.86,2.2a23.21,23.21,0,0,1,2.63,1.83l-11.54,1.45c0,.29-.09.58-.13.86l10.4,1.85c-.58,2.59-1.15,5.12-1.84,8.16l6.21.37.5.91c-.75.53-1.49,1.45-2.27,1.52-3.94.36-7.9.5-11.85.71,0,.38,0,.76-.07,1.14l16.63,2.18c-6.45,1.89-13.14-1-18.54,5.19l10.79.68c.63,2.75,1.06,4.67,1.7,7.5l-8.45,2.2,3.77,3.11c-1.37.71-2.39,1.62-3.48,1.75-5.38.64-10.78,1.49-16.17,1.5-6.69,0-13,1.13-19,5-2.65,1.68-6,1.88-9.09,2.29-5,.68-10.11,1.1-15.18,1.39-4.14.23-8.28.15-12.42.16-1.93,0-4-.6-5.74,0-1.17.41-1.94,2.5-2.89,3.84l.11-.1c-1.6-.82-1.6-.82-.36-3.18l-.55-.89L737,288.39c-.65-.89-1.41-1.94-2.24-3.11l-1.79,3.5-2.73-3.55-1.83,3.62c-1-1.3-1.77-2.33-2.79-3.69l-1.38,3.46-1,.78c-.47-1.6-.94-3.21-1.57-5.33-1.18,2.59-1.63,3.58-2.22,4.89l-2.65-3.69c-.67,1.34-1.19,2.39-1.81,3.62l-3.24-4.33c-.1,2.13-.15,3.28-.21,4.43l.11-.12-4.21-3.2c-.38,1-.77,2.08-1.32,3.56l-2.74-3.87-2,3.55-2.68-3.58-2,4.33-1.8-4.07-3.44,3.25.11.12-1.74-4-1.95,3.88-2.39-3.07c-1.22,1.24-2.13,2.15-3,3.06l.12.11-1.89-4.19c-.71,1.92-1.1,3-2,5.37l-2.29-5.72-2,4.75-2.72-3.77L669.87,289l-2.68-3.48-1.82,3.21-3.1-3.53c-.48,1.56-.79,2.6-1.47,4.85l-2.33-5L656.24,289l-2.73-3.87c-.54,1.48-.92,2.53-1.29,3.57l-1,.81-1.75-5.3-2.11,4.92-2.63-3.84-2.19,4.08c-.76-1.82-1.32-3.19-2-4.91l-2.27,4.57-2.68-3.77c-.66,1.45-1.12,2.47-1.59,3.49l-1.07.9-1.31-5-.87,1.11c-.4,1-.8,2.05-1.39,3.58-1-1.65-1.76-2.78-2.58-4.09l-2.5,4.39c-.69-2-1.18-3.4-1.87-5.38l-2.29,5.64-2-5.1-1.13,1c-.09,1-.17,2.07-.26,3.1l.1-.12-4.06-3.13c-.44,1.13-.85,2.16-1.36,3.46l-3-4c-.47,1.55-.79,2.61-1.12,3.66l-1.17,1c-.53-1.73-1.06-3.46-1.81-5.89-1,2.76-1.41,3.81-2.22,6l-1.91-5.25-1.18,1.08c-.1,1.05-.21,2.1-.31,3.15l.11-.12-4.14-3.13c-.41,1.07-.79,2.1-1.52,4-.9-2.08-1.52-3.53-2.15-5l-.91,1-.94,3.55-3.4-3.87c-.48,1.4-.84,2.45-1.55,4.55-.86-2.11-1.41-3.44-2-4.92-1.32,1.93-1.93,2.8-3.07,4.45-.64-1.91-1.16-3.44-1.68-5-.31.4-.62.81-.94,1.21-.29,1-.59,2.08-.61,2.16-1.78,1.69-3.39-6.05-4.2,1.08l.1-.12-4-2.9c-.42.82-.94,1.87-1.89,3.73-.82-1.91-1.4-3.27-2.22-5.16L561.8,289l-2.71-3.12c-.68,1.12-1.25,2-1.83,3l-3.11-3.37-1.5,3.76-2.83-3.88-1.61,3.82-2.83-3.77c-.59,1.35-1,2.35-1.59,3.67l-3.14-3.65-1.39,3.65-3.41-3.78c-.12,1.75-.19,2.71-.26,3.66l.11-.13c-1.45-1-2.89-1.93-4.3-2.88-.33,1-.66,2-1.07,3.21L526.75,285c-.07,1.85-.1,2.89-.14,3.92l.1-.12L522.58,286l-1.38,3.13c-1.18-1.38-2.11-2.46-3.6-4.18V289l.1-.12-4.15-2.91-1.83,4.34c-.87-2.24-1.44-3.73-2-5.22l-1,.86c0,1-.09,2-.13,3.05l.1-.12-4.18-2.91-1.14,3.27-3.78-4.16V289l.1-.12-4-2.49-1.83,2.73-2.65-3.53c-.56,1.26-1,2.27-1.55,3.55L486.77,286l-2,3.46c-.79-1.62-1.37-2.8-2.05-4.16L480.46,289l-3.22-3.62c-.32,1.5-.53,2.47-.83,3.86L473,285.73l-1.32,3.12-1,.82c-.45-1.64-.9-3.27-1.34-4.91l-1,1.12c-.31,1-.62,2.08-.92,3.12l-.92.7-1.84-4.94-2.46,4.85c-.76-1.89-1.25-3.09-1.82-4.49l-2.7,4.35-2.15-4.22-2,3.82-2.76-3.17c-.61,1.18-1.11,2.13-1.61,3.08l-1.12.95L446.74,285l-1.17,1.09V289l.11-.12-4.26-2.73L440,289.35l-2.75-3.52c-.66,1.14-1.19,2.08-2.42,4.22-.67-2-1.16-3.4-1.85-5.41l-2.37,5.81-2.12-5.39c-1,2-1.47,3.06-2.1,4.35l-2.45-3.33-2.58,3.9c-.68-1.81-1.22-3.22-1.89-5-1,1.95-1.46,2.92-2.06,4.14-1.15-1.33-2.08-2.42-3.1-3.59-.41,1.44-.72,2.5-1,3.56l-1.08.78c-.49-1.42-1-2.84-1.5-4.38-1.19,1.77-1.79,2.66-2.52,3.73l-2.46-3.47-2,3.56-2.54-3.38-1.85,3.19L397,286.45l-3.37,2.38.11.13c-.49-1.08-1-2.17-1.6-3.52-.81,1.56-1.32,2.57-2.21,4.28-.77-1.93-1.25-3.15-1.74-4.37-.19.48-.39.95-.59,1.43-1,.69-2,1.38-3,2.06l.11.12c-.49-1.06-1-2.13-1.65-3.56-.7,1.68-1.12,2.68-1.64,3.91l-3.19-3.68c-.53,1.36-.94,2.42-1.47,3.8l-2.61-3.34-2.33,3.37c-.66-1.56-1.17-2.79-1.79-4.27-1.16,2-1.68,3-2.66,4.67l-2-4.13-2.16,3.33L360.53,286l-1.87,3.44-2.52-3.5c-.7,1.21-1.24,2.14-2.35,4.08L352,285.5l-2.76,4.06-1.76-4.15-2.41,3.52-3-3.25c-.22,1.5-.34,2.39-.47,3.28l.11-.14-4-2.31-1.64,2.56L333.41,286l-1.87,3.3-2.39-3.34-1.95,3.29L324,285.5c-.16,1.64-.25,2.55-.34,3.46l.1-.13-4.11-2.28c-.38.71-.88,1.68-1.77,3.37-.72-1.83-1.26-3.2-1.94-4.95l-2.35,4.42L311.13,286l-2.49,4c-.74-2-1.31-3.5-2-5.47-1.05,2.63-1.46,3.65-2,4.94l-2.54-3.34-2.34,3.42-2-4.33-2.08,4-3.22-3.6-1,3.49-1,.81c-.47-1.45-.95-2.9-1.55-4.73l-2.75,5c-.64-1.92-1.11-3.34-1.72-5.15-1.28,2.42-1.83,3.47-2.45,4.63l-2.42-3.68c-.73,1.32-1.28,2.29-2.43,4.38-.67-1.91-1.17-3.33-1.95-5.58-1,2.6-1.44,3.62-2.15,5.4l-2.3-4.7-2.5,4.75c-.74-1.87-1.3-3.26-2-5.14-1,2.29-1.46,3.31-2,4.54l-2.7-3.48-2,3-2.69-3L255,289.42,252.36,286l-2.27,4.41-2-5.06c-.94,1.95-1.42,2.94-2.41,5-.73-1.94-1.26-3.32-1.94-5.12l-2.48,4.46-2.11-4.19L237,289.61,234.41,286l-1.87,3.21-2.81-3.15c-.66,1.33-1.13,2.29-1.61,3.24l-3-2.9c-.16.84-.33,1.68-.5,2.53l.1-.18-4.36-2c-.26.55-.73,1.57-1.32,2.87l-2.88-3.7-1.66,3.81-2.69-3.8-1.91,3.57-2.6-3.57c-.59,1.27-1,2.24-2.06,4.46l-2-5.21-2.61,5c-.64-1.73-1.16-3.1-1.93-5.18l-2.31,4.85L194,286.14l-2.36,4.13-1.77-4.73-.95.77c-.38,1-.75,2.05-1.26,3.45L184.73,286l-2,4.38-2.24-5-2,4.23-2.72-3.48-2,3.44L171.12,286c-.62,1.37-1.08,2.39-1.7,3.78L166.65,286c-.59,1.33-1,2.33-2.05,4.66L162.41,285l-2.24,5.6c-.75-2.1-1.28-3.62-2-5.75l-2.58,5.39c-.78-1.76-1.39-3.11-2-4.45l-1,.66v2.46l.12-.09-4.42-2.1c-.33.69-.8,1.7-1.38,2.93l-2.72-3.48-2,3.5L139.62,286l-1.74,3.68c-1-1.35-1.87-2.42-2.89-3.72l-1.45,3.77-3.06-3.57L129,289.82l-.85,0c-.59-1.2-1.17-2.4-1.94-4-.77,1.7-1.23,2.73-1.85,4.09L121.6,286c-.63,1.35-1.1,2.36-2.19,4.67l-2-5.23-2.19,4.24-3.06-4.16c-.21,2-.33,3.15-.45,4.29l.11-.14-3.93-3.1c-.52,1-1.06,2-1.68,3.24l-2.7-3.82c-.64,1.45-1.09,2.48-2.08,4.76l-2.14-5.67c-1,2.37-1.41,3.4-2,4.82l-2.73-3.84-1.66,3.49-1.17.92-1.46-5.66-2,5.12-2.82-3.88L83.41,291c-.82-2.23-1.38-3.76-2-5.57-1.06,2.08-1.56,3.05-2.17,4.26l-2.76-3.58c-.64,1.43-1.1,2.47-1.69,3.82l-2.84-3.79-1.65,3.74-2.26-3-3.34,2.43Z"/><path class="cls-1" d="M152.58,288.92c3.12,1.77,6.29,1.72,9.6.79.79-.22,1.85,1,2.78,1.6l-.17,1.51c-1.08,0-2.16.07-3.24,0-.38,0-.82-.77-1.09-.66a12.4,12.4,0,0,1-8.62.22c-2-.56-4.34.95-6.53,1-1,0-2.11-1.18-3.16-1.83,1-.56,2-1.58,3.07-1.58,2.2,0,4.4.57,6.61.71.26,0,.58-1.18.87-1.82Z"/><path class="cls-1" d="M152.7,288.83c-.29.64-.61,1.84-.87,1.82-2.21-.14-4.41-.72-6.61-.71-1,0-2.05,1-3.07,1.58l.17-.11a22.2,22.2,0,0,0-3-1.28,7.71,7.71,0,0,0-3-.2A10,10,0,0,0,133.9,291l-.3-.07-.3.07L129,289.82l1.52-3.62,3.06,3.57L135,286c1,1.3,1.84,2.37,2.89,3.72l1.74-3.68,2.59,3.64,2-3.5,2.72,3.48c.58-1.23,1-2.24,1.38-2.93Z"/><path class="cls-1" d="M445.68,288.85c-.29.5-.61,1.46-.87,1.44-2.19-.2-4.36-.74-6.54-.85-2-.1-4.06.31-6.09.31-2.49,0-5-.23-7.46-.34a38.86,38.86,0,0,0-4.7-.1c-2.07.19-4.12.84-6.19.9-2.27.06-4.55-.38-6.84-.51a58.27,58.27,0,0,0-6.2-.12c-2.26.12-4.52.51-6.78.69a6.68,6.68,0,0,1-.39-1.44l3.37-2.38,2.36,2.66,1.85-3.19,2.54,3.38,2-3.56,2.46,3.47c.73-1.07,1.33-2,2.52-3.73.53,1.54,1,3,1.5,4.38l1.08-.78c.31-1.06.62-2.12,1-3.56,1,1.17,1.95,2.26,3.1,3.59.6-1.22,1.08-2.19,2.06-4.14.67,1.79,1.21,3.2,1.89,5l2.58-3.9,2.45,3.33c.63-1.29,1.13-2.34,2.1-4.35l2.12,5.39,2.37-5.81c.69,2,1.18,3.44,1.85,5.41,1.23-2.14,1.76-3.08,2.42-4.22l2.75,3.52,1.43-3.23Z"/><path class="cls-1" d="M111.84,289.71c-.26.35-.53,1-.8,1-3,.09-6.05.23-9.06.07-3.7-.2-7.38-.87-11.08-1-2.1-.05-4.2.65-6.31,1a4.44,4.44,0,0,1-1.35.14c-3.68-.47-7.35-1.23-11-1.36-2.14-.08-4.3.88-6.47,1.19-.31.05-.71-1-1.08-1.5L68,286.84l2.26,3,1.65-3.74,2.84,3.79c.59-1.35,1.05-2.39,1.69-3.82l2.76,3.58c.61-1.21,1.11-2.18,2.17-4.26.67,1.81,1.23,3.34,2,5.57l2.09-4.91L88.32,290l2-5.12,1.46,5.66,1.17-.92,1.66-3.49,2.73,3.84c.58-1.42,1-2.45,2-4.82l2.14,5.67c1-2.28,1.44-3.31,2.08-4.76l2.7,3.82c.62-1.21,1.16-2.23,1.68-3.24Z"/><path class="cls-1" d="M384.72,289a16,16,0,0,1-9.89.53c-2-.49-4.27.73-6.43.79a59.74,59.74,0,0,1-6.52-.56c-2-.15-4-.62-6-.27-2.73.49-5.41.16-8.05.26a18.47,18.47,0,0,1-6.18-.75c.13-.89.25-1.78.47-3.28l3,3.25,2.41-3.52,1.76,4.15L352,285.5l1.75,4.5c1.11-1.94,1.65-2.87,2.35-4.08l2.52,3.5,1.87-3.44,2.68,3.08,2.16-3.33,2,4.13c1-1.71,1.5-2.63,2.66-4.67.62,1.48,1.13,2.71,1.79,4.27l2.33-3.37,2.61,3.34c.53-1.38.94-2.44,1.47-3.8l3.19,3.68c.52-1.23.94-2.23,1.64-3.91C383.74,286.83,384.23,287.9,384.72,289Z"/><path class="cls-1" d="M571.72,288.84a6,6,0,0,1-.42,1.36,65.13,65.13,0,0,0-6.88-1c-2.14,0-4.28.7-6.43.76s-4.46-.28-6.69-.42a46.46,46.46,0,0,0-4.85-.24c-2.22.08-4.42.52-6.63.51a21.88,21.88,0,0,1-4.23-.85c.07-1,.14-1.91.26-3.66l3.41,3.78,1.39-3.65,3.14,3.65c.57-1.32,1-2.32,1.59-3.67l2.83,3.77,1.61-3.82,2.83,3.88,1.5-3.76,3.11,3.37c.58-.94,1.15-1.85,1.83-3L561.8,289l1.82-4.5c.82,1.89,1.4,3.25,2.22,5.16.95-1.86,1.47-2.91,1.89-3.73Z"/><path class="cls-1" d="M598.74,288.85c-.13.36-.27,1-.37,1-2.28-.19-4.56-.65-6.84-.67-2.12,0-4.24.59-6.36.62-2.33,0-4.67-.27-7-.42l-6.54-.44c.81-7.13,2.42.61,4.2-1.08,0-.08.32-1.12.61-2.16.32-.4.63-.81.94-1.21.52,1.54,1,3.07,1.68,5,1.14-1.65,1.75-2.52,3.07-4.45.6,1.48,1.15,2.81,2,4.92.71-2.1,1.07-3.15,1.55-4.55l3.4,3.87.94-3.55.91-1c.63,1.44,1.25,2.89,2.15,5,.73-1.93,1.11-3,1.52-4Z"/><path class="cls-1" d="M711.63,288.87a26.06,26.06,0,0,1-5.16,1c-2.25,0-4.49-.73-6.74-.74s-4.29.61-6.44.74c-.6,0-1.23-.65-1.85-1l3.44-3.25,1.8,4.07,2-4.33,2.68,3.58,2-3.55,2.74,3.87c.55-1.48.94-2.52,1.32-3.56Z"/><path class="cls-1" d="M125,291.52c-3.23-2.43-6.46-2-9.69,0l-3.53-1.67c.12-1.14.24-2.27.45-4.29l3.06,4.16,2.19-4.24,2,5.23c1.09-2.31,1.56-3.32,2.19-4.67l2.72,3.86c.62-1.36,1.08-2.39,1.85-4.09.77,1.58,1.35,2.78,1.94,4Z"/><path class="cls-1" d="M526.71,288.84c-.27.48-.57,1.39-.79,1.36-2.78-.33-5.55-.8-8.32-1.23V284.9c1.49,1.72,2.42,2.8,3.6,4.18l1.38-3.13Z"/><path class="cls-1" d="M535.7,288.84c-.41.47-.84,1.38-1.2,1.33-2.64-.29-5.27-.78-7.89-1.21,0-1,.07-2.07.14-3.92l3.58,4.13c.41-1.23.74-2.21,1.07-3.21C532.81,286.91,534.25,287.88,535.7,288.84Z"/><path class="cls-1" d="M517.7,288.85c-.27.46-.58,1.35-.81,1.33-2.77-.33-5.53-.79-8.29-1.21,0-1,.09-2,.13-3.05l1-.86c.57,1.49,1.14,3,2,5.22l1.83-4.34Z"/><path class="cls-1" d="M508.7,288.85c-.37.53-.78,1.56-1.1,1.52-2.68-.36-5.34-.91-8-1.4v-3.92l3.78,4.16,1.14-3.27Z"/><path class="cls-1" d="M393.73,289c-2.67.48-5.33,1-8,1.37-.33.05-.74-1-1.12-1.49,1-.68,2-1.37,3-2.06.2-.48.4-.95.59-1.43.49,1.22,1,2.44,1.74,4.37.89-1.71,1.4-2.72,2.21-4.28C392.75,286.79,393.24,287.88,393.73,289Z"/><path class="cls-1" d="M691.55,289c-2.7.33-5.4.71-8.11,1-.32,0-.67-.69-1-1.06.91-.91,1.82-1.82,3-3.06l2.39,3.07,1.95-3.88Z"/></g></g></svg>