<svg xmlns="http://www.w3.org/2000/svg" viewBox="0 0 1523.35 194.24"><defs><style>.cls-1{fill:#fff;}</style></defs><g id="Layer_2" data-name="Layer 2"><g id="Layer_1-2" data-name="Layer 1"><path class="cls-1" d="M1430.14,193.47c-116.61,1-236.31.36-356,.42q-321.53.15-643.05,0c-123.91,0-247.83-.21-371.74.34-12.68,0-20.62-4.94-27.06-16.15-3.29-5.71-7.94-10.42-11.67-15.85-5.32-7.74-5.73-17.54-8.44-26.39-2.36-7.67-5.47-15-8.25-22.55C-1,100-1.39,86.66,3.25,73.23c.38-1.1,2-2.49,2.94-2.41,4.78.42,4.73-2.76,5.41-6.8C13.39,53.44,17.24,48.86,28,47.29c5.63-.81,11.73.82,16.18-4.83a1.59,1.59,0,0,1,1.37-.56c6.89,2,8.52-2.58,10-8.82C58.05,22.14,66.8,17.72,74.85,13.77,95.8,3.48,118.16.06,140.86.06Q816.75-.06,1492.65,0c11.7,0,12.61-.18,15,12.23,2.15,11.3,2.63,23.12,2.7,34.73a35.18,35.18,0,0,0,4.59,17.09c.34.63,1.19,1.39,1.06,1.78-2,5.73,1,10.14,3,14.85.54,1.29.52,3.09,1.34,4,4.07,4.54,3.36,9.41,1.89,15a66.28,66.28,0,0,0-2.3,16.28c0,6.74-2.28,11.72-6.88,15.68-6.19,5.34-11.83,11.18-14.31,19.87-.15.52-.54,1.07-.47,1.56,1.72,12.64-6.2,18.36-14.14,23.42-7.44,4.75-15.12,9.62-23.27,12.2C1452,191.46,1442.53,191.67,1430.14,193.47Z"/></g></g></svg>