<svg xmlns="http://www.w3.org/2000/svg" viewBox="0 0 2375 99.99"><defs><style>.cls-1{fill:#fff;}</style></defs><g id="Layer_2" data-name="Layer 2"><g id="Layer_1-2" data-name="Layer 1"><path class="cls-1" d="M2375,15c-24.74,4.89-49.48,8.85-74.22,12.87s-49.48,7.47-74.22,10.89q-74.22,10.13-148.44,18T1929.69,71c-24.74,2.14-49.48,4-74.22,5.89-24.74,1.74-49.48,3.56-74.22,5.08-99,6.41-197.92,10.8-296.88,13.77s-197.91,4.36-296.87,4.29-197.92-1.49-296.88-4.46l-37.1-1.15L816.41,93c-24.74-.84-49.48-2-74.22-3.1-49.48-2.37-99-5-148.44-8.21-12.37-.78-24.74-1.57-37.11-2.47l-37.11-2.62-37.11-2.85c-12.37-.92-24.74-2-37.11-3q-74.22-6.25-148.43-14.13T148.44,38.63c-24.74-3.4-49.48-7-74.22-10.84S24.74,19.86,0,15V5l74.22-.75,74.22-.57L296.88,2.56,593.75,1.17,668,.83l74.22-.2L890.62.28,1187.5,0l296.87.26,148.44.36L1707,.81l74.22.34,296.87,1.4,148.44,1.12,74.22.57L2375,5Z"/></g></g></svg>